# xmcd
#
# Track frame offsets:
#	150
#	13195
#	28185
#	48500
#	61275
#	73050
#	87732
#	105987
#	118437
#	131900
#
# Disc length: 1965 seconds
#
# Revision: 4
# Processed by: cddbd v1.5.2PL0 Copyright (c) Steve Scherf et al.
# Submitted via: audiograbber 1.83.01
#
DISCID=9707ab0a
DTITLE=Rosanne Cash - Seven Year Ache
DYEAR=1900
DGENRE=
TTITLE0=Rainin'
TTITLE1=Seven Year Ache
TTITLE2=Blue Moon With Heartache
TTITLE3=What Kinda Girl?
TTITLE4=You Don't Have Very Far To Go
TTITLE5=My Baby Thinks He's A Train
TTITLE6=Only Human
TTITLE7=Where Will The Words Come From?
TTITLE8=Hometown Blues
TTITLE9=I Can't Resist
EXTD=
EXTT0=
EXTT1=
EXTT2=
EXTT3=
EXTT4=
EXTT5=
EXTT6=
EXTT7=
EXTT8=
EXTT9=
PLAYORDER=
